# xmcd
#
# Track frame offsets:
#	150
#	61982
#	75825
#	82512
#	98120
#	106270
#	128832
#	138125
#	158967
#	215167
#	230255
#
# Disc length: 3396 seconds
#
# Revision: 1
# Processed by: cddbd v1.5.1PL0 Copyright (c) Steve Scherf et al.
# Submitted via: CDex 1.50Beta5
#
DISCID=7c0d420b
DTITLE=さだまさし - 響の森 Twenty Five Reasons さだまさし25周年記念ライブ Disc 2
DYEAR=1999
DGENRE=
TTITLE0=Talk4
TTITLE1=北の国から
TTITLE2=Talk5
TTITLE3=僕の胸でおやすみ
TTITLE4=Talk6
TTITLE5=歌紡ぎの小夜曲
TTITLE6=Talk7
TTITLE7=ムギ
TTITLE8=talk8
TTITLE9=JONAH
TTITLE10=前夜
EXTD=
EXTT0=
EXTT1=
EXTT2=
EXTT3=
EXTT4=
EXTT5=
EXTT6=
EXTT7=
EXTT8=
EXTT9=
EXTT10=
PLAYORDER=
